<svg width="184" height="32" viewBox="0 0 184 32" fill="none" xmlns="http://www.w3.org/2000/svg">
<g clip-path="url(#clip0_27602_27281)">
<g clip-path="url(#clip1_27602_27281)">
<path d="M19.0002 16.2742C10.8011 16.2742 4.15038 13.6283 4.15038 10.3617C4.15038 7.09516 10.7946 4.45577 19.0002 4.45577V0.699219C14.5707 0.699219 10.3438 1.41133 7.10989 2.69836C1.26927 5.02415 0.393829 8.49978 0.393829 10.3617C0.393829 12.2237 1.26927 15.7058 7.10989 18.0316C10.3438 19.3186 14.5707 20.0308 19.0002 20.0308V16.2742Z" fill="black"/>
<path d="M30.8901 6.44836C27.6562 5.16133 23.4293 4.44922 18.9998 4.44922V8.20577C27.1989 8.20577 33.8496 10.8517 33.8496 14.1183C33.8496 17.3848 27.1989 20.0307 18.9998 20.0307V23.7873C23.4293 23.7873 27.6562 23.0752 30.8901 21.7882C36.7307 19.4624 37.6061 15.9867 37.6061 14.1183C37.6061 12.2498 36.7307 8.77415 30.8901 6.44836Z" fill="black"/>
<path d="M0.68782 15.9932C0.465694 16.7053 0.393829 17.3455 0.393829 17.8682C0.393829 19.7366 1.26927 23.2123 7.10989 25.5381C10.3438 26.8251 14.5707 27.5372 19.0002 27.5372V23.7872C14.5707 23.7872 10.3438 23.0751 7.10989 21.7881C2.89602 20.109 1.26927 17.829 0.68782 15.9932Z" fill="black"/>
<path d="M37.3122 19.7559C37.5343 20.468 37.6061 21.1082 37.6061 21.6309C37.6061 23.4993 36.7307 26.975 30.8901 29.3008C27.6562 30.5878 23.4293 31.2999 18.9998 31.2999V27.5499C23.4293 27.5499 27.6562 26.8378 30.8901 25.5507C35.104 23.8717 36.7307 21.5982 37.3122 19.7559Z" fill="black"/>
<path d="M19 5.80176C11.5522 5.80176 5.50906 7.84663 5.50906 10.3619C5.50906 12.8771 11.5457 14.922 19 14.922V5.80176Z" fill="#8124E2"/>
<path d="M18.9998 9.55859C26.4476 9.55859 32.4907 11.6035 32.4907 14.1187C32.4907 16.634 26.4541 18.6788 18.9998 18.6788V9.55859Z" fill="#A963D6"/>
</g>
<path fill-rule="evenodd" clip-rule="evenodd" d="M162.509 6.61149V10.4089C161.959 10.2646 161.414 10.2252 160.975 10.2252C158.345 10.2252 155.899 11.4648 155.899 15.0851V25.1327H152.279V6.86728H155.899V8.54626C156.81 7.3067 158.456 6.5 160.975 6.5C161.486 6.5 161.998 6.53935 162.509 6.61149ZM59.1886 20.4236H63.4973C62.002 23.4536 58.9656 25.4998 55.352 25.4998C50.0923 25.4998 46 21.2237 46 16.0359C46 10.8481 50.0923 6.53918 55.352 6.53918C60.6117 6.53918 64.5598 10.8153 64.5598 16.0359C64.5598 16.5081 64.5204 16.9869 64.4483 17.4263H49.8366C50.3874 20.2006 52.5779 22.2468 55.2799 22.2468C56.8538 22.2468 58.2048 21.591 59.1886 20.417V20.4236ZM49.9087 14.4684H60.5396C59.9559 11.8385 57.9097 9.9037 55.2799 9.9037C52.65 9.9037 50.5317 11.8385 49.9087 14.4684ZM76.4685 9.86435C73.2878 9.86435 70.7694 12.6386 70.7694 16.0031C70.7694 19.3676 73.2878 22.1747 76.4685 22.1747C78.3704 22.1747 79.8985 21.1188 80.8166 19.5447H84.7975C83.5186 22.9748 80.4494 25.3884 76.5079 25.3884C71.3203 25.3884 67.0444 21.1516 67.0444 15.9638C67.0444 10.776 71.3203 6.53918 76.5079 6.53918C80.3772 6.53918 83.4465 8.91337 84.7647 12.2779H80.6723C79.7607 10.7825 78.2589 9.86435 76.4751 9.86435H76.4685ZM86.4497 15.9639C86.4497 21.1517 90.647 25.3557 95.8345 25.3557C101.022 25.3557 105.187 21.1517 105.187 15.9639C105.187 10.7761 101.016 6.61145 95.8345 6.61145C90.6535 6.61145 86.4497 10.7761 86.4497 15.9639ZM101.389 16.036C101.389 19.4333 98.8644 22.1748 95.7624 22.1748C92.621 22.1748 90.1354 19.4006 90.1354 16.036C90.1354 12.6715 92.6538 9.89727 95.7624 9.89727C98.871 9.89727 101.389 12.6387 101.389 16.036ZM121.483 20.4236H125.792C124.296 23.4536 121.26 25.4998 117.646 25.4998C112.387 25.4998 108.294 21.2237 108.294 16.0359C108.294 10.8481 112.387 6.53918 117.646 6.53918C122.906 6.53918 126.854 10.8153 126.854 16.0359C126.854 16.5081 126.815 16.9869 126.743 17.4263H112.131C112.682 20.2006 114.872 22.2468 117.574 22.2468C119.148 22.2468 120.499 21.591 121.483 20.417V20.4236ZM112.203 14.4684H122.834C122.25 11.8385 120.204 9.9037 117.574 9.9037C114.944 9.9037 112.826 11.8385 112.203 14.4684ZM144.279 22.9422V25.1327H147.82V6.86728H144.279V9.16932C144.279 9.16932 142.455 6.65085 138.435 6.65085C133.208 6.65085 128.972 10.927 128.972 16.0754C128.972 21.2239 133.208 25.4607 138.435 25.4607C142.449 25.4607 144.279 22.9422 144.279 22.9422ZM144.206 16.1476C144.206 19.5121 141.688 22.2863 138.507 22.2863C135.327 22.2863 132.808 19.5449 132.808 16.1476C132.808 12.7503 135.327 9.93667 138.507 9.93667C141.688 9.93667 144.206 12.7831 144.206 16.1476ZM183.993 25.1327V14.7244L184 14.7178C184 8.25112 179.757 6.5 176.399 6.5C173.881 6.5 172.235 7.3067 171.323 8.54626V6.86728H167.703V25.1393H171.323V15.0917C171.323 11.4714 173.769 10.2318 176.399 10.2318C177.862 10.2318 180.38 11.3271 180.38 14.7244V25.1327H183.993Z" fill="black"/>
</g>
<defs>
<clipPath id="clip0_27602_27281">
<rect width="184" height="32" fill="white"/>
</clipPath>
<clipPath id="clip1_27602_27281">
<rect width="38" height="32" fill="white"/>
</clipPath>
</defs>
</svg>
