<svg xmlns="http://www.w3.org/2000/svg" width="16" height="16" viewBox="0 0 16 16" fill="none">
  <path d="M7.55005 2C7.41198 2 7.30005 2.11193 7.30005 2.25V7.29999H2.25C2.11193 7.29999 2 7.41192 2 7.54999V8.44999C2 8.58806 2.11193 8.69999 2.25 8.69999H7.30005V13.75C7.30005 13.8881 7.41198 14 7.55005 14H8.45005C8.58812 14 8.70005 13.8881 8.70005 13.75V8.69999H13.75C13.8881 8.69999 14 8.58806 14 8.44999V7.54999C14 7.41192 13.8881 7.29999 13.75 7.29999H8.70005V2.25C8.70005 2.11193 8.58812 2 8.45005 2H7.55005Z" fill="#1A1A1A"/>
</svg>