<svg width="20" height="20" viewBox="0 0 20 20" fill="none" xmlns="http://www.w3.org/2000/svg">
<path fill-rule="evenodd" clip-rule="evenodd" d="M17.5 2.11H2.5C2.28461 2.11 2.11 2.28461 2.11 2.5V17.5C2.11 17.7154 2.28461 17.89 2.5 17.89H17.5C17.7154 17.89 17.89 17.7154 17.89 17.5V2.5C17.89 2.28461 17.7154 2.11 17.5 2.11ZM2.5 0.25C1.25736 0.25 0.25 1.25736 0.25 2.5V17.5C0.25 18.7426 1.25736 19.75 2.5 19.75H17.5C18.7426 19.75 19.75 18.7426 19.75 17.5V2.5C19.75 1.25736 18.7426 0.25 17.5 0.25H2.5Z" fill="#1A1A1A"/>
<rect x="3.76025" y="4.92999" width="5.07" height="1.56" rx="0.78" fill="#1A1A1A"/>
<path fill-rule="evenodd" clip-rule="evenodd" d="M12.3401 11.56C11.9093 11.56 11.5601 11.9092 11.5601 12.34C11.5601 12.7707 11.9093 13.12 12.3401 13.12H15.4601C15.8908 13.12 16.2401 12.7707 16.2401 12.34C16.2401 11.9092 15.8908 11.56 15.4601 11.56H12.3401ZM12.3401 13.8999C11.9093 13.8999 11.5601 14.2491 11.5601 14.6799C11.5601 15.1107 11.9093 15.4599 12.3401 15.4599H15.4601C15.8908 15.4599 16.2401 15.1107 16.2401 14.6799C16.2401 14.2491 15.8908 13.8999 15.4601 13.8999H12.3401Z" fill="#1A1A1A"/>
<path fill-rule="evenodd" clip-rule="evenodd" d="M5.71033 15.46C5.71033 15.8908 6.05955 16.24 6.49033 16.24C6.92111 16.24 7.27033 15.8908 7.27033 15.46V14.2901H8.44025C8.87104 14.2901 9.22025 13.9409 9.22025 13.5101C9.22025 13.0793 8.87104 12.7301 8.44025 12.7301H7.27033V11.56C7.27033 11.1292 6.92111 10.78 6.49033 10.78C6.05954 10.78 5.71033 11.1292 5.71033 11.56L5.71033 12.7301H4.54025C4.10947 12.7301 3.76025 13.0793 3.76025 13.5101C3.76025 13.9409 4.10947 14.2901 4.54025 14.2901H5.71033L5.71033 15.46Z" fill="#1A1A1A"/>
<path fill-rule="evenodd" clip-rule="evenodd" d="M12.1475 6.74621C11.8429 7.05082 11.8429 7.54469 12.1475 7.8493C12.4521 8.15391 12.9459 8.15391 13.2505 7.8493L14.0778 7.02203L14.9051 7.84932C15.2097 8.15393 15.7036 8.15393 16.0082 7.84932C16.3128 7.54472 16.3128 7.05085 16.0082 6.74624L15.1809 5.91894L16.0083 5.09158C16.3129 4.78697 16.3129 4.29311 16.0083 3.9885C15.7037 3.68389 15.2098 3.68389 14.9052 3.9885L14.0778 4.81585L13.2505 3.98852C12.9459 3.68391 12.452 3.68391 12.1474 3.98852C11.8428 4.29313 11.8428 4.787 12.1474 5.09161L12.9747 5.91894L12.1475 6.74621Z" fill="#1A1A1A"/>
</svg>
