<svg xmlns="http://www.w3.org/2000/svg" width="72" height="72" viewBox="0 0 72 72" fill="none">
  <path d="M0 35.7837C0 35.0781 0.145176 34.3801 0.426497 33.7331L11.5127 8.23484C12.3291 6.35713 14.1815 5.14258 16.229 5.14258H55.771C57.8185 5.14258 59.6709 6.35714 60.4873 8.23484L71.5735 33.7331C71.8548 34.3801 72 35.0781 72 35.7837V61.714C72 64.5543 69.6975 66.8569 66.8571 66.8569H5.14286C2.30254 66.8569 0 64.5543 0 61.714V35.7837Z" fill="#CDAFFF"/>
  <path d="M0 36.0003C0 33.16 2.30254 30.8574 5.14286 30.8574H20.5714C23.4117 30.8574 25.7143 33.16 25.7143 36.0003C25.7143 38.8406 28.0168 41.1431 30.8571 41.1431H41.1429C43.9832 41.1431 46.2857 38.8406 46.2857 36.0003C46.2857 33.16 48.5882 30.8574 51.4286 30.8574H66.8571C69.6975 30.8574 72 33.16 72 36.0003V61.7146C72 64.5549 69.6975 66.8574 66.8571 66.8574H5.14286C2.30254 66.8574 0 64.5549 0 61.7146V36.0003Z" fill="#B98EFF"/>
  <path d="M41.1428 52.0716C41.1428 51.7165 41.4306 51.4287 41.7856 51.4287H61.0714C61.4264 51.4287 61.7142 51.7165 61.7142 52.0716V54.0001C61.7142 54.3552 61.4264 54.643 61.0714 54.643H41.7856C41.4306 54.643 41.1428 54.3552 41.1428 54.0001V52.0716Z" fill="#F3ECFF"/>
  <path d="M51.4285 59.143C51.4285 58.788 51.7163 58.5001 52.0714 58.5001H61.0714C61.4264 58.5001 61.7142 58.788 61.7142 59.143V61.0716C61.7142 61.4266 61.4264 61.7144 61.0714 61.7144H52.0714C51.7163 61.7144 51.4285 61.4266 51.4285 61.0716V59.143Z" fill="#F3ECFF"/>
  <path d="M17.6785 58.5001C16.7909 58.5001 16.0714 59.2197 16.0714 60.1073C16.0714 60.9949 16.7909 61.7144 17.6785 61.7144C18.5661 61.7144 19.2856 60.9949 19.2856 60.1073C19.2856 59.2197 18.5661 58.5001 17.6785 58.5001Z" fill="#F3ECFF"/>
  <path d="M21.8571 60.1073C21.8571 59.2197 22.5766 58.5001 23.4642 58.5001C24.3518 58.5001 25.0714 59.2197 25.0714 60.1073C25.0714 60.9949 24.3518 61.7144 23.4642 61.7144C22.5766 61.7144 21.8571 60.9949 21.8571 60.1073Z" fill="#F3ECFF"/>
  <path d="M11.8928 58.5001C11.0052 58.5001 10.2856 59.2197 10.2856 60.1073C10.2856 60.9949 11.0052 61.7144 11.8928 61.7144C12.7804 61.7144 13.4999 60.9949 13.4999 60.1073C13.4999 59.2197 12.7804 58.5001 11.8928 58.5001Z" fill="#F3ECFF"/>
</svg>