<svg xmlns="http://www.w3.org/2000/svg" width="18" height="18" viewBox="0 0 18 18" fill="none">
  <path d="M2.021 15.3845C2.021 15.6951 2.27284 15.947 2.5835 15.947H9.74076C9.86503 15.947 9.96576 15.8462 9.96576 15.722V14.7657C9.96576 14.6415 9.86503 14.5407 9.74076 14.5407H3.42725L3.42725 3.45947L9.74076 3.45947C9.86502 3.45947 9.96576 3.35874 9.96576 3.23447V2.27822C9.96576 2.15396 9.86502 2.05322 9.74076 2.05322H2.5835C2.27284 2.05322 2.021 2.30506 2.021 2.61572V15.3845ZM12.3931 12.8183C12.3052 12.9062 12.1628 12.9062 12.0749 12.8183L11.3987 12.1421C11.3109 12.0542 11.3109 11.9118 11.3987 11.8239L13.5195 9.70317L4.91787 9.70317C4.79361 9.70317 4.69287 9.60243 4.69287 9.47817V8.52192C4.69287 8.39765 4.79361 8.29692 4.91787 8.29692L13.5196 8.29692L11.3988 6.1762C11.311 6.08834 11.311 5.94587 11.3988 5.85801L12.075 5.18184C12.1629 5.09397 12.3053 5.09397 12.3932 5.18184L15.8137 8.60216C15.876 8.66441 15.9206 8.73762 15.9476 8.81559C16.0159 9.0128 15.9713 9.24046 15.8138 9.39796L12.3931 12.8183Z" fill="#1A1A1A"/>
</svg>