<svg xmlns="http://www.w3.org/2000/svg" width="18" height="18" viewBox="0 0 18 18" fill="none">
  <path fill-rule="evenodd" clip-rule="evenodd" d="M1.13086 9.00023C1.13086 4.65413 4.65413 1.13086 9.00023 1.13086C13.3463 1.13086 16.8696 4.65413 16.8696 9.00023C16.8696 13.3463 13.3463 16.8696 9.00023 16.8696C4.65413 16.8696 1.13086 13.3463 1.13086 9.00023ZM9.00023 2.52586C5.42457 2.52586 2.52586 5.42457 2.52586 9.00023C2.52586 12.5759 5.42457 15.4746 9.00023 15.4746C12.5759 15.4746 15.4746 12.5759 15.4746 9.00023C15.4746 5.42457 12.5759 2.52586 9.00023 2.52586Z" fill="#1A1A1A"/>
  <path fill-rule="evenodd" clip-rule="evenodd" d="M1.13086 9.00023C1.13086 8.61502 1.44314 8.30273 1.82836 8.30273H16.1721C16.5573 8.30273 16.8696 8.61502 16.8696 9.00023C16.8696 9.38545 16.5573 9.69773 16.1721 9.69773H1.82836C1.44314 9.69773 1.13086 9.38545 1.13086 9.00023Z" fill="#1A1A1A"/>
  <path fill-rule="evenodd" clip-rule="evenodd" d="M7.37642 1.9127C7.80181 1.4629 8.35016 1.13086 8.99984 1.13086C9.64952 1.13086 10.1979 1.4629 10.6233 1.9127C11.0473 2.36103 11.3969 2.97235 11.676 3.66991C12.2356 5.0689 12.5661 6.95376 12.5661 9.00023C12.5661 11.0467 12.2356 12.9316 11.676 14.3306C11.3969 15.0281 11.0473 15.6394 10.6233 16.0878C10.1979 16.5376 9.64952 16.8696 8.99984 16.8696C8.35016 16.8696 7.80181 16.5376 7.37642 16.0878C6.95243 15.6394 6.60274 15.0281 6.32372 14.3306C5.76412 12.9316 5.43359 11.0467 5.43359 9.00023C5.43359 6.95376 5.76412 5.0689 6.32372 3.66991C6.60274 2.97235 6.95243 2.36103 7.37642 1.9127ZM7.61894 4.188C7.14025 5.38471 6.82859 7.08579 6.82859 9.00023C6.82859 10.9147 7.14025 12.6158 7.61894 13.8125C7.85906 14.4128 8.12753 14.8517 8.38997 15.1292C8.65101 15.4053 8.85734 15.4746 8.99984 15.4746C9.14235 15.4746 9.34868 15.4053 9.60972 15.1292C9.87216 14.8517 10.1406 14.4128 10.3807 13.8125C10.8594 12.6158 11.1711 10.9147 11.1711 9.00023C11.1711 7.08579 10.8594 5.38471 10.3807 4.188C10.1406 3.5877 9.87216 3.14872 9.60972 2.87122C9.34868 2.59519 9.14235 2.52586 8.99984 2.52586C8.85734 2.52586 8.65101 2.59519 8.38997 2.87122C8.12753 3.14872 7.85906 3.5877 7.61894 4.188Z" fill="#1A1A1A"/>
</svg>