<?xml version="1.0" standalone="no"?>
<!DOCTYPE svg PUBLIC "-//W3C//DTD SVG 20010904//EN"
 "http://www.w3.org/TR/2001/REC-SVG-20010904/DTD/svg10.dtd">
<svg version="1.0" xmlns="http://www.w3.org/2000/svg"
 width="450.000000pt" height="145.000000pt" viewBox="0 0 450.000000 145.000000"
 preserveAspectRatio="xMidYMid meet">

<g transform="translate(0.000000,145.000000) scale(0.100000,-0.100000)"
fill="#000000" stroke="none">
<path d="M4092 1434 c-67 -18 -84 -27 -134 -72 -67 -61 -91 -120 -96 -239 l-4
-103 -79 0 -79 0 0 -100 0 -100 80 0 80 0 0 -355 0 -355 110 0 110 0 0 355 0
355 135 0 135 0 0 100 0 100 -136 0 -136 0 4 75 c3 69 6 78 36 108 32 31 35
32 132 35 l100 4 0 104 0 104 -102 -1 c-57 0 -127 -7 -156 -15z"/>
<path d="M3380 760 l0 -650 115 0 115 0 0 650 0 650 -115 0 -115 0 0 -650z"/>
<path d="M644 1371 c-45 -28 -64 -59 -64 -109 0 -76 39 -123 112 -137 79 -15
148 48 148 136 0 101 -110 162 -196 110z"/>
<path d="M165 1251 c-97 -24 -165 -109 -165 -205 0 -37 39 -124 66 -148 63
-55 165 -63 252 -19 135 68 189 62 273 -29 60 -64 86 -73 127 -44 35 24 44 59
27 99 -16 40 -10 38 -137 39 -92 1 -98 2 -126 29 -16 16 -44 61 -62 100 -18
40 -44 87 -57 105 -41 55 -132 89 -198 73z"/>
<path d="M1998 1045 c-344 -87 -467 -531 -223 -803 34 -37 71 -64 133 -94 85
-43 86 -43 191 -42 124 0 183 19 269 84 29 22 55 40 57 40 3 0 5 -22 5 -50 l0
-50 80 0 80 0 0 55 0 55 60 -44 c79 -58 157 -88 250 -93 131 -9 259 33 348
113 l44 39 -69 73 -68 74 -60 -36 c-71 -44 -112 -56 -186 -56 -116 0 -215 54
-260 141 -37 73 -59 68 339 71 l357 3 3 49 c5 78 -17 181 -54 255 -82 164
-262 255 -440 222 -82 -15 -156 -48 -211 -96 -23 -19 -44 -35 -47 -35 -3 0 -6
25 -6 55 l0 55 -80 0 -80 0 0 -55 0 -55 -60 44 c-33 25 -85 54 -114 65 -73 27
-186 34 -258 16z m272 -197 c97 -41 160 -131 168 -239 12 -175 -111 -309 -283
-309 -88 0 -153 29 -213 94 -70 76 -92 160 -67 257 45 180 226 270 395 197z
m729 5 c56 -22 95 -57 124 -112 l28 -51 -260 0 c-144 0 -261 3 -261 8 0 12 29
53 64 90 75 81 201 108 305 65z"/>
<path d="M982 991 c-69 -24 -121 -66 -154 -127 -102 -186 28 -404 241 -404
112 1 195 53 245 156 25 51 28 66 24 128 -6 87 -31 139 -94 195 -48 42 -121
71 -178 71 -17 -1 -55 -9 -84 -19z"/>
<path d="M643 680 c-12 -5 -34 -27 -48 -49 -32 -48 -95 -91 -132 -91 -34 0
-102 21 -163 49 -139 64 -290 -30 -290 -180 0 -99 57 -171 154 -196 104 -27
206 32 241 139 27 81 52 124 87 152 43 32 72 38 138 27 84 -14 120 11 120 80
0 28 -29 69 -49 69 -5 0 -15 2 -23 4 -7 3 -23 1 -35 -4z"/>
<path d="M679 330 c-70 -20 -99 -60 -99 -133 0 -74 58 -127 141 -127 35 0 48
6 80 39 34 34 39 44 39 85 0 26 -7 60 -15 76 -24 46 -95 75 -146 60z"/>
<path d="M4300 205 l0 -95 100 0 100 0 0 95 0 95 -100 0 -100 0 0 -95z"/>
</g>
</svg>
