<svg width="32" height="32" viewBox="0 0 32 32" fill="none" xmlns="http://www.w3.org/2000/svg">
<g id="Menu">
<path id="Vector" d="M5.33594 9.33333C5.33594 8.97971 5.47641 8.64057 5.72646 8.39052C5.97651 8.14048 6.31565 8 6.66927 8H25.3359C25.5111 7.99997 25.6845 8.03444 25.8462 8.10144C26.008 8.16843 26.155 8.26664 26.2789 8.39045C26.4027 8.51427 26.5009 8.66126 26.568 8.82304C26.635 8.98482 26.6695 9.15822 26.6695 9.33333C26.6695 9.50845 26.635 9.68184 26.568 9.84363C26.5009 10.0054 26.4027 10.1524 26.2789 10.2762C26.155 10.4 26.008 10.4982 25.8462 10.5652C25.6845 10.6322 25.5111 10.6667 25.3359 10.6667H6.66927C6.31565 10.6667 5.97651 10.5262 5.72646 10.2761C5.47641 10.0261 5.33594 9.68695 5.33594 9.33333ZM5.33594 16C5.33594 15.6464 5.47641 15.3072 5.72646 15.0572C5.97651 14.8071 6.31565 14.6667 6.66927 14.6667H25.3359C25.6896 14.6667 26.0287 14.8071 26.2787 15.0572C26.5288 15.3072 26.6693 15.6464 26.6693 16C26.6693 16.3536 26.5288 16.6928 26.2787 16.9428C26.0287 17.1929 25.6896 17.3333 25.3359 17.3333H6.66927C6.31565 17.3333 5.97651 17.1929 5.72646 16.9428C5.47641 16.6928 5.33594 16.3536 5.33594 16ZM5.33594 22.6667C5.33594 22.313 5.47641 21.9739 5.72646 21.7239C5.97651 21.4738 6.31565 21.3333 6.66927 21.3333H25.3359C25.5111 21.3333 25.6845 21.3678 25.8462 21.4348C26.008 21.5018 26.155 21.6 26.2789 21.7238C26.4027 21.8476 26.5009 21.9946 26.568 22.1564C26.635 22.3182 26.6695 22.4916 26.6695 22.6667C26.6695 22.8418 26.635 23.0152 26.568 23.177C26.5009 23.3387 26.4027 23.4857 26.2789 23.6095C26.155 23.7334 26.008 23.8316 25.8462 23.8986C25.6845 23.9656 25.5111 24 25.3359 24H6.66927C6.31565 24 5.97651 23.8595 5.72646 23.6095C5.47641 23.3594 5.33594 23.0203 5.33594 22.6667Z" fill="#1A1A1A"/>
</g>
</svg>
