<svg xmlns="http://www.w3.org/2000/svg" width="14" height="14" viewBox="0 0 14 14" fill="none">
  <path d="M11.1035 9.91189C11.6877 9.09005 12.0312 8.08514 12.0312 7C12.0312 4.22132 9.77868 1.96875 7 1.96875C4.22132 1.96875 1.96875 4.22132 1.96875 7C1.96875 8.08514 2.31229 9.09005 2.89654 9.91189C5.36124 8.20284 8.63876 8.20284 11.1035 9.91189ZM10.3699 10.736C8.32971 9.38647 5.67028 9.38647 3.63012 10.736C4.5221 11.5411 5.70381 12.0312 7 12.0312C8.29619 12.0312 9.47789 11.5411 10.3699 10.736ZM7 13.125C3.61726 13.125 0.875 10.3827 0.875 7C0.875 3.61725 3.61726 0.875 7 0.875C10.3827 0.875 13.125 3.61725 13.125 7C13.125 10.3827 10.3827 13.125 7 13.125ZM7.00003 6.74329C6.46869 6.74329 6.03795 6.31255 6.03795 5.78121C6.03795 5.24986 6.46869 4.81912 7.00003 4.81912C7.53138 4.81912 7.96212 5.24986 7.96212 5.78121C7.96212 6.31255 7.53138 6.74329 7.00003 6.74329ZM7.00003 7.83704C8.13544 7.83704 9.05587 6.91661 9.05587 5.78121C9.05587 4.6458 8.13544 3.72537 7.00003 3.72537C5.86463 3.72537 4.9442 4.6458 4.9442 5.78121C4.9442 6.91661 5.86463 7.83704 7.00003 7.83704Z" fill="#7D48E8"/>
</svg>