<svg viewBox="0 0 24 24" fill="#9F9F9F" xmlns="http://www.w3.org/2000/svg">
<path d="M12 20.625C16.7635 20.625 20.625 16.7635 20.625 12C20.625 7.23654 16.7635 3.375 12 3.375C7.23654 3.375 3.375 7.23654 3.375 12C3.375 16.7635 7.23654 20.625 12 20.625ZM12 22.5C6.20101 22.5 1.5 17.799 1.5 12C1.5 6.20101 6.20101 1.5 12 1.5C17.799 1.5 22.5 6.20101 22.5 12C22.5 17.799 17.799 22.5 12 22.5ZM13.4721 16.65C13.4721 17.3956 12.8677 18 12.1221 18C11.3765 18 10.7721 17.3956 10.7721 16.65C10.7721 15.9044 11.3765 15.3 12.1221 15.3C12.8677 15.3 13.4721 15.9044 13.4721 16.65ZM10.3827 9.86277C10.5484 9.86277 10.6792 9.72667 10.7165 9.56523C10.8514 8.981 11.3749 8.54544 12.0001 8.54544C12.7276 8.54544 13.3174 9.13523 13.3174 9.86277C13.3174 10.283 13.1217 10.657 12.8127 10.8997C12.4844 11.1576 12.0627 11.501 11.7244 11.9169C11.382 12.3379 11.0626 12.9088 11.0626 13.6176V13.875C11.0626 14.0407 11.1969 14.175 11.3626 14.175H12.6376C12.8033 14.175 12.9376 14.0407 12.9376 13.875V13.6176C12.9376 13.498 12.9883 13.3344 13.1789 13.1001C13.3736 12.8608 13.6479 12.628 13.971 12.3742C14.713 11.7913 15.1924 10.8827 15.1924 9.86277C15.1924 8.0997 13.7631 6.67044 12.0001 6.67044C10.3381 6.67044 8.9727 7.94053 8.82162 9.56306C8.80626 9.72803 8.94205 9.86277 9.10774 9.86277H10.3827Z"/>
</svg>
