<svg xmlns="http://www.w3.org/2000/svg" width="64" height="64" viewBox="0 0 64 64" fill="none">
  <path d="M60 32C60 47.464 47.464 60 32 60C16.536 60 4 47.464 4 32C4 16.536 16.536 4 32 4C47.464 4 60 16.536 60 32ZM20.8987 23.3025C20.5863 23.6149 20.5863 24.1214 20.8987 24.4338L28.465 32.0001L20.8988 39.5663C20.5864 39.8787 20.5864 40.3852 20.8988 40.6976L23.303 43.1018C23.6154 43.4142 24.1219 43.4142 24.4343 43.1018L32.0005 35.5356L39.5663 43.1015C39.8787 43.4139 40.3853 43.4139 40.6977 43.1015L43.1018 40.6973C43.4143 40.3849 43.4143 39.8784 43.1018 39.5659L35.536 32.0001L43.102 24.4342C43.4144 24.1218 43.4144 23.6152 43.102 23.3028L40.6978 20.8986C40.3854 20.5862 39.8788 20.5862 39.5664 20.8986L32.0005 28.4646L24.4342 20.8983C24.1218 20.5859 23.6153 20.5859 23.3029 20.8983L20.8987 23.3025Z" fill="#F53F3F"/>
</svg>