<svg xmlns="http://www.w3.org/2000/svg" width="56" height="56" viewBox="0 0 56 56" fill="none">
  <path fill-rule="evenodd" clip-rule="evenodd" d="M28 56C43.464 56 56 43.464 56 28C56 12.536 43.464 0 28 0C12.536 0 0 12.536 0 28C0 43.464 12.536 56 28 56ZM27.3089 14.4928C27.6994 14.1023 28.3326 14.1023 28.7231 14.4928L38.6328 24.4038C38.7891 24.56 38.7891 24.8132 38.6328 24.9695L36.2186 27.3837C36.0624 27.5399 35.8092 27.5399 35.6529 27.3837L30.416 22.1468L30.416 41.3861C30.416 41.6071 30.237 41.7861 30.016 41.7861H26.016C25.7951 41.7861 25.616 41.6071 25.616 41.3861V22.1455L20.3793 27.3823C20.2231 27.5385 19.9698 27.5385 19.8136 27.3823L17.3994 24.9681C17.2432 24.8119 17.2432 24.5586 17.3994 24.4024L27.3089 14.4928Z" fill="#00B73E"/>
</svg>