<svg width="16" height="16" viewBox="0 0 16 16" fill="none" xmlns="http://www.w3.org/2000/svg">
<path d="M14.75 7.64649C14.9453 7.84175 14.9453 8.15833 14.75 8.3536L10.2953 12.8084C10.2172 12.8865 10.0905 12.8865 10.0124 12.8084L9.30532 12.1013C9.22721 12.0232 9.22721 11.8965 9.30532 11.8184L12.4237 8.70003H1.30339C1.19293 8.70003 1.10339 8.61049 1.10339 8.50003V7.50003C1.10339 7.38958 1.19293 7.30003 1.30339 7.30003H12.4231L9.30462 4.18158C9.22652 4.10348 9.22652 3.97685 9.30462 3.89874L10.0117 3.19164C10.0898 3.11353 10.2165 3.11353 10.2946 3.19164L14.75 7.64649Z" fill="#434343"/>
</svg>
