<svg xmlns="http://www.w3.org/2000/svg" width="24" height="24" viewBox="0 0 24 24" fill="none">
  <path fill-rule="evenodd" clip-rule="evenodd" d="M3 8.8125C3 9.01961 3.16789 9.1875 3.375 9.1875H12.8994C13.2931 10.3852 14.4205 11.25 15.75 11.25C17.0795 11.25 18.2069 10.3852 18.6006 9.1875H20.625C20.8321 9.1875 21 9.01961 21 8.8125V7.6875C21 7.48039 20.8321 7.3125 20.625 7.3125H18.6006C18.2069 6.11478 17.0795 5.25 15.75 5.25C14.4205 5.25 13.2931 6.11478 12.8994 7.3125H3.375C3.16789 7.3125 3 7.48039 3 7.6875V8.8125ZM15.75 7.125C15.1287 7.125 14.625 7.62868 14.625 8.25C14.625 8.87132 15.1287 9.375 15.75 9.375C16.3713 9.375 16.875 8.87132 16.875 8.25C16.875 7.62868 16.3713 7.125 15.75 7.125Z" fill="#1A1A1A"/>
  <path fill-rule="evenodd" clip-rule="evenodd" d="M11.1006 16.6875C10.7069 17.8852 9.57946 18.75 8.25 18.75C6.92054 18.75 5.79306 17.8852 5.39939 16.6875H3.375C3.16789 16.6875 3 16.5196 3 16.3125V15.1875C3 14.9804 3.16789 14.8125 3.375 14.8125H5.39939C5.79306 13.6148 6.92054 12.75 8.25 12.75C9.57946 12.75 10.7069 13.6148 11.1006 14.8125H20.625C20.8321 14.8125 21 14.9804 21 15.1875V16.3125C21 16.5196 20.8321 16.6875 20.625 16.6875H11.1006ZM7.125 15.75C7.125 15.1287 7.62868 14.625 8.25 14.625C8.87132 14.625 9.375 15.1287 9.375 15.75C9.375 16.3713 8.87132 16.875 8.25 16.875C7.62868 16.875 7.125 16.3713 7.125 15.75Z" fill="#1A1A1A"/>
</svg>