<svg xmlns="http://www.w3.org/2000/svg" width="72" height="72" viewBox="0 0 72 72" fill="none">
  <path d="M1.33106 25.5056C0.595927 22.7621 2.22407 19.9421 4.9676 19.2069L54.6438 5.89624C57.3873 5.16111 60.2073 6.78925 60.9425 9.53279L67.5978 34.3709C68.3329 37.1144 66.7048 39.9344 63.9613 40.6696L14.2851 53.9803C11.5415 54.7154 8.72153 53.0872 7.9864 50.3437L1.33106 25.5056Z" fill="#CDAFFF"/>
  <path d="M0 26.6054C0 22.9536 2.30254 19.9932 5.14286 19.9932C25.7143 19.9932 46.2857 19.9932 66.8571 19.9932C69.6975 19.9932 72 22.9536 72 26.6054V59.6666C72 63.3185 69.6975 66.2789 66.8571 66.2789H5.14286C2.30254 66.2789 0 63.3185 0 59.6666V26.6054Z" fill="#B98EFF"/>
  <path fill-rule="evenodd" clip-rule="evenodd" d="M10.2856 30.9222C10.2856 30.5671 10.5735 30.2793 10.9285 30.2793H25.0714C25.4264 30.2793 25.7142 30.5671 25.7142 30.9222V32.8507C25.7142 33.2058 25.4264 33.4936 25.0714 33.4936H10.9285C10.5735 33.4936 10.2856 33.2058 10.2856 32.8507V30.9222ZM10.2856 37.9936C10.2856 37.6385 10.5735 37.3507 10.9285 37.3507H19.9285C20.2835 37.3507 20.5714 37.6385 20.5714 37.9936V39.9222C20.5714 40.2772 20.2835 40.565 19.9285 40.565H10.9285C10.5735 40.565 10.2856 40.2772 10.2856 39.9222V37.9936ZM59.1428 43.1364C59.1428 45.2667 57.4159 46.9936 55.2856 46.9936C53.1554 46.9936 51.4285 45.2667 51.4285 43.1364C51.4285 41.0062 53.1554 39.2793 55.2856 39.2793C57.4159 39.2793 59.1428 41.0062 59.1428 43.1364ZM61.7142 43.1364C61.7142 46.6868 58.836 49.565 55.2856 49.565C51.7352 49.565 48.8571 46.6868 48.8571 43.1364C48.8571 39.586 51.7352 36.7079 55.2856 36.7079C58.836 36.7079 61.7142 39.586 61.7142 43.1364Z" fill="#F3ECFF"/>
</svg>